# xmcd
#
# Track frame offsets: 
#        150
#        20267
#        35895
#        54215
#        74488
#        91176
#        117580
#        132492
#        152152
#        170987
#        186351
#        212325
#        228177
#        245572
#        263090
#
# Disc length: 3723 seconds
#
# Revision: 0
# Processed by: cddbd v1.5.2PL0 Copyright (c) Steve Scherf et al.
# Submitted via: ExactAudioCopy v1.0b4
#
DISCID=d60e890f
DTITLE=Duke Robillard - Duke And His Dames Of Rhythm
DYEAR=2017
DGENRE=Blues
TTITLE0=From Monday On
TTITLE1=Got The South In My Soul
TTITLE2=Please Don't Talk About Me When I'm Gone
TTITLE3=Squeeze Me
TTITLE4=Walking Stick
TTITLE5=Blues In My Heart
TTITLE6=Lotus Blossom
TTITLE7=My Heart Belongs To Daddy
TTITLE8=What's The Reason (I'm Not Pleasin' You)
TTITLE9=Me, Myself And I
TTITLE10=Easy Living
TTITLE11=Was That The Human Thing To Do
TTITLE12=If I Could Be With You (One Hour Tonight)
TTITLE13=Ready For The River
TTITLE14=Call Of The Freaks
EXTD=
EXTT0=
EXTT1=
EXTT2=
EXTT3=
EXTT4=
EXTT5=
EXTT6=
EXTT7=
EXTT8=
EXTT9=
EXTT10=
EXTT11=
EXTT12=
EXTT13=
EXTT14=
PLAYORDER=
